<?xml version="1.0" encoding="UTF-8"?>
<!-- Generator: visioncortex VTracer 0.6.5 -->
<svg version="1.1" xmlns="http://www.w3.org/2000/svg" width="550" height="544">
<path d="M0 0 C181.5 0 363 0 550 0 C550 179.52 550 359.04 550 544 C368.5 544 187 544 0 544 C0 364.48 0 184.96 0 0 Z " fill="#F8F9FA" transform="translate(0,0)"/>
<path d="M0 0 C1.45 -0 2.9 -0.01 4.36 -0.02 C8.33 -0.04 12.3 -0.03 16.27 -0.01 C20.56 -0.01 24.85 -0.02 29.14 -0.03 C37.54 -0.05 45.94 -0.04 54.34 -0.03 C61.17 -0.02 67.99 -0.02 74.82 -0.03 C75.79 -0.03 76.77 -0.03 77.77 -0.03 C79.74 -0.03 81.72 -0.03 83.7 -0.03 C102.22 -0.04 120.74 -0.03 139.26 -0.01 C155.14 0.01 171.02 0 186.9 -0.01 C205.35 -0.03 223.81 -0.04 242.26 -0.03 C244.23 -0.03 246.2 -0.03 248.17 -0.03 C248.65 -0.03 248.65 -0.03 251.1 -0.03 C257.92 -0.02 264.74 -0.03 271.55 -0.04 C279.86 -0.05 288.18 -0.05 296.49 -0.02 C300.73 -0.01 304.96 -0.01 309.2 -0.02 C313.09 -0.03 316.97 -0.03 320.86 -0.01 C322.26 -0 323.66 -0 325.06 -0.01 C334.72 -0.08 344.03 0.77 352 6.76 C360.24 15.38 361.95 24.42 361.88 36.07 C361.88 36.99 361.88 37.91 361.88 38.86 C361.89 41.92 361.88 44.99 361.87 48.05 C361.87 50.26 361.87 52.47 361.88 54.68 C361.88 60.69 361.87 66.69 361.86 72.7 C361.86 79.06 361.86 85.41 361.86 91.77 C361.86 102.5 361.85 113.23 361.83 123.96 C361.82 134.85 361.81 145.74 361.81 156.62 C361.81 157.96 361.81 159.3 361.81 160.64 C361.81 161.3 361.81 161.96 361.81 162.64 C361.81 192.36 361.76 222.07 361.66 251.79 C361.63 258.87 361.62 265.95 361.62 273.03 C361.61 280.35 361.59 287.67 361.53 295 C361.51 298.44 361.49 301.89 361.5 305.33 C361.53 332.7 361.53 332.7 350.94 343.51 C344.41 348.58 337.5 350.75 329.27 350.61 C328.21 350.59 327.15 350.58 326.05 350.56 C325.65 350.55 325.65 350.55 323.63 350.51 C323.65 351.45 323.67 352.39 323.69 353.37 C323.76 356.88 323.81 360.39 323.85 363.91 C323.87 365.42 323.9 366.94 323.93 368.46 C323.98 370.65 324 372.83 324.02 375.02 C324.04 376.33 324.06 377.65 324.08 379 C323.56 383.07 322.56 384.7 319.63 387.51 C316.69 388.13 316.69 388.13 313.63 387.51 C311.98 385.86 310.33 384.21 308.63 382.51 C308.63 371.95 308.63 361.39 308.63 350.51 C212.6 350.51 116.57 350.51 17.63 350.51 C17.63 361.07 17.63 371.63 17.63 382.51 C14.63 387.51 14.63 387.51 11.75 388.51 C8.08 388.51 6.51 387.73 3.63 385.51 C2.12 382.5 2.51 379.4 2.53 376.09 C2.53 375.36 2.53 374.63 2.54 373.88 C2.54 371.55 2.55 369.22 2.57 366.88 C2.57 365.3 2.58 363.72 2.58 362.14 C2.59 358.26 2.61 354.39 2.63 350.51 C1.81 350.52 0.99 350.53 0.14 350.54 C-0.94 350.55 -2.02 350.55 -3.13 350.56 C-4.2 350.57 -5.27 350.58 -6.37 350.59 C-9.98 350.49 -12.98 349.73 -16.37 348.51 C-17.51 348.14 -18.64 347.77 -19.81 347.38 C-20.65 347.09 -21.5 346.81 -22.37 346.51 C-22.37 345.85 -22.37 345.19 -22.37 344.51 C-22.97 344.24 -23.57 343.98 -24.18 343.71 C-29.96 340.54 -33.34 334.59 -35.37 328.51 C-36.46 321.82 -36.51 315.24 -36.51 308.48 C-36.51 307.88 -36.51 307.88 -36.51 304.85 C-36.52 301.54 -36.52 298.23 -36.52 294.93 C-36.52 291.35 -36.52 287.78 -36.53 284.21 C-36.54 277.21 -36.54 270.22 -36.54 263.23 C-36.54 257.54 -36.54 251.86 -36.54 246.17 C-36.55 230.04 -36.56 213.92 -36.56 197.79 C-36.56 197.36 -36.56 197.36 -36.56 195.16 C-36.56 194.29 -36.56 193.42 -36.56 192.53 C-36.56 178.42 -36.57 164.32 -36.58 150.22 C-36.59 135.74 -36.6 121.25 -36.6 106.76 C-36.6 98.63 -36.6 90.5 -36.61 82.37 C-36.62 75.45 -36.62 68.53 -36.62 61.61 C-36.61 58.08 -36.61 54.55 -36.62 51.02 C-36.63 47.2 -36.63 43.37 -36.62 39.54 C-36.62 38.43 -36.63 37.32 -36.63 36.17 C-36.58 24.31 -33.96 14.82 -25.64 6.15 C-17.54 0.29 -9.76 -0.07 0 0 Z " fill="#040404" transform="translate(122.37155151367188,72.4920654296875)"/>
<path d="M0 0 C120.78 0 241.56 0 366 0 C366 34.98 366 69.96 366 106 C245.22 106 124.44 106 0 106 C0 71.02 0 36.04 0 0 Z " fill="#F8F9FA" transform="translate(102,211)"/>
<path d="M0 0 C120.78 0 241.56 0 366 0 C366 67 366 67 360 74 C355.93 75.93 352.39 76.25 347.92 76.25 C346.72 76.26 345.52 76.27 344.28 76.27 C342.96 76.27 341.65 76.26 340.3 76.26 C338.88 76.26 337.47 76.27 336.05 76.27 C332.16 76.28 328.28 76.28 324.39 76.28 C320.2 76.27 316.01 76.28 311.82 76.29 C303.61 76.3 295.39 76.3 287.18 76.3 C280.51 76.3 273.84 76.3 267.17 76.31 C266.22 76.31 265.27 76.31 264.29 76.31 C262.36 76.31 260.43 76.31 258.5 76.31 C240.41 76.32 222.33 76.32 204.24 76.31 C187.69 76.31 171.13 76.32 154.58 76.34 C137.59 76.36 120.59 76.37 103.6 76.36 C94.06 76.36 84.52 76.36 74.97 76.38 C66.85 76.39 58.73 76.39 50.61 76.38 C46.46 76.37 42.32 76.37 38.17 76.38 C34.38 76.4 30.59 76.39 26.79 76.38 C24.77 76.37 22.75 76.39 20.72 76.4 C19.52 76.39 18.32 76.38 17.08 76.37 C16.56 76.37 16.56 76.37 13.94 76.37 C8.51 75.68 4.5 73.14 1 69 C-6.27 47.18 0 23 0 0 Z " fill="#F7F8F9" transform="translate(102,332)"/>
<path d="M0 0 C0.69 -0 1.38 -0 2.09 -0 C4.4 -0 6.71 0 9.02 0.01 C10.68 0.01 12.33 0.01 13.99 0.01 C18.49 0.01 22.99 0.01 27.49 0.02 C32.19 0.03 36.89 0.03 41.59 0.03 C50.49 0.03 59.4 0.04 68.3 0.05 C80.33 0.06 92.36 0.07 104.39 0.07 C123.35 0.08 142.3 0.1 161.26 0.12 C161.26 35.76 161.26 71.4 161.26 108.12 C102.85 108.12 44.44 108.12 -15.74 108.12 C-15.86 91.76 -15.99 75.41 -16.11 58.56 C-16.17 53.4 -16.22 48.24 -16.28 42.93 C-16.31 36.61 -16.31 36.61 -16.31 33.65 C-16.32 31.59 -16.34 29.53 -16.37 27.48 C-16.42 24.35 -16.42 21.22 -16.42 18.09 C-16.43 17.64 -16.43 17.64 -16.49 15.33 C-16.43 9.61 -15.26 6.58 -11.32 2.4 C-7.87 -0.39 -4.24 -0 0 0 Z " fill="#F8F9FA" transform="translate(117.73869323730469,87.87974548339844)"/>
<path d="M0 0 C41.39 -0.16 41.39 -0.16 58.71 -0.2 C70.68 -0.22 82.65 -0.25 94.62 -0.3 C103.34 -0.34 112.06 -0.37 120.78 -0.38 C125.39 -0.38 130.01 -0.39 134.62 -0.42 C138.97 -0.45 143.31 -0.46 147.66 -0.45 C149.25 -0.45 150.85 -0.46 152.44 -0.48 C154.62 -0.5 156.8 -0.49 158.98 -0.48 C159.59 -0.48 159.59 -0.48 162.67 -0.49 C166.73 0.11 168.86 1.4 172 4 C173.91 6.78 174.25 8.95 174.24 12.28 C174.24 12.7 174.24 12.7 174.25 14.84 C174.25 15.3 174.25 15.3 174.23 17.63 C174.23 18.63 174.23 19.62 174.23 20.64 C174.23 23.85 174.21 27.06 174.2 30.27 C174.19 32.25 174.19 34.23 174.19 36.21 C174.18 43.56 174.15 50.9 174.12 58.25 C174.08 74.67 174.04 91.09 174 108 C116.58 108 59.16 108 0 108 C0 72.36 0 36.72 0 0 Z " fill="#F8F9FA" transform="translate(294,88)"/>
<path d="M0 0 C0.67 -0 1.35 -0.01 2.04 -0.02 C4.27 -0.03 6.5 -0.04 8.72 -0.04 C10.27 -0.05 11.82 -0.05 13.38 -0.06 C16.63 -0.07 19.88 -0.08 23.13 -0.08 C27.29 -0.08 31.45 -0.11 35.61 -0.14 C38.82 -0.16 42.02 -0.16 45.22 -0.16 C46.76 -0.17 48.29 -0.17 49.82 -0.19 C51.97 -0.2 54.12 -0.2 56.27 -0.2 C57.49 -0.2 58.71 -0.2 59.97 -0.21 C63.74 0.21 66.14 1.11 69.33 3.16 C70.45 6.54 70.45 6.54 70.33 10.16 C68.78 12.85 68.78 12.85 66.33 15.16 C63.66 15.66 61.63 15.84 58.96 15.79 C58.59 15.8 58.59 15.8 56.73 15.81 C54.31 15.83 51.88 15.81 49.45 15.79 C47.77 15.79 46.08 15.79 44.39 15.8 C40.85 15.8 37.31 15.79 33.78 15.76 C29.24 15.72 24.71 15.73 20.18 15.75 C16.69 15.76 13.2 15.75 9.72 15.74 C8.05 15.73 6.38 15.73 4.7 15.74 C2.37 15.74 0.03 15.72 -2.3 15.69 C-2.65 15.7 -2.65 15.7 -4.39 15.71 C-7.7 15.65 -9.45 15.33 -12.14 13.35 C-13.67 11.16 -13.67 11.16 -13.61 7.6 C-12.36 3.02 -12.36 3.02 -9.67 1.16 C-6.25 0.02 -3.61 0.02 0 0 Z " fill="#050505" transform="translate(256.671142578125,257.8388671875)"/>
<path d="M0 0 C0.52 -0.01 0.52 -0.01 3.18 -0.04 C4.31 -0.04 5.44 -0.03 6.6 -0.03 C7.19 -0.03 7.19 -0.03 10.13 -0.05 C12.59 -0.05 15.05 -0.05 17.51 -0.04 C21.28 -0.03 25.04 -0.06 28.81 -0.09 C31.2 -0.1 33.59 -0.1 35.98 -0.09 C37.11 -0.1 38.24 -0.11 39.4 -0.13 C40.45 -0.12 41.5 -0.11 42.59 -0.1 C43.51 -0.1 44.43 -0.1 45.38 -0.1 C48.63 0.56 49.83 1.83 51.86 4.4 C52.36 7.4 52.36 7.4 51.86 10.4 C49.63 13.25 48.31 14.25 44.86 15.4 C43.27 15.52 41.69 15.57 40.1 15.6 C39.13 15.61 38.17 15.63 37.18 15.65 C32.77 15.69 28.37 15.73 23.97 15.75 C21.65 15.77 19.33 15.8 17.01 15.84 C13.66 15.89 10.31 15.91 6.96 15.93 C5.92 15.95 4.89 15.97 3.82 16 C-0.97 15.98 -3.37 15.96 -7.34 13.1 C-9.14 10.4 -9.14 10.4 -9.14 6.78 C-7.52 1.29 -5.66 0.03 0 0 Z " fill="#050505" transform="translate(356.142333984375,134.595947265625)"/>
<path d="M0 0 C7.33 -0.1 14.66 -0.17 22 -0.22 C24.49 -0.24 26.99 -0.27 29.48 -0.3 C33.07 -0.35 36.65 -0.37 40.23 -0.39 C41.35 -0.41 42.47 -0.43 43.62 -0.45 C44.66 -0.45 45.7 -0.45 46.77 -0.45 C47.69 -0.46 48.6 -0.47 49.54 -0.48 C52.81 0.16 54.01 1.38 56 4 C55.94 7.56 55.76 9.97 53.62 12.88 C50.67 14.92 48 15.13 44.52 15.16 C43.61 15.17 42.71 15.18 41.77 15.19 C40.8 15.19 39.82 15.2 38.82 15.2 C38.32 15.21 38.32 15.21 35.78 15.22 C33.65 15.23 31.52 15.24 29.4 15.24 C26.14 15.25 22.89 15.28 19.64 15.31 C17.58 15.32 15.51 15.32 13.45 15.33 C12.96 15.33 12.96 15.33 10.5 15.37 C5.55 15.35 1.97 15.33 -2 12 C-3.48 9.04 -3.06 6.26 -3 3 C-2.01 2.67 -1.02 2.34 0 2 C0 1.34 0 0.68 0 0 Z " fill="#040404" transform="translate(165,135)"/>
</svg>
